<?xml version="1.0" encoding="UTF-8"?>
<svg width="24px" height="24px" stroke-width="1.5" viewBox="0 0 24 24" fill="none" xmlns="http://www.w3.org/2000/svg" color="#000000">
    <defs>
        <linearGradient id="grad1" x1="0%" y1="0%" x2="0%" y2="100%">
            <stop offset="0%" style="stop-color:yellow;stop-opacity:1" />
            <stop offset="100%" style="stop-color:red;stop-opacity:1" />
        </linearGradient>
        <filter id="dropShadow" x="-50%" y="-50%" width="200%" height="200%">
            <feDropShadow dx="2" dy="2" stdDeviation="1" flood-color="black" flood-opacity="0.5" />
        </filter>
    </defs>
    <path d="M20 10C20 14.4183 12 22 12 22C12 22 4 14.4183 4 10C4 5.58172 7.58172 2 12 2C16.4183 2 20 5.58172 20 10Z" stroke="url(#grad1)" stroke-width="1.5" filter="url(#dropShadow)"></path>
    <path d="M12 11C12.5523 11 13 10.5523 13 10C13 9.44772 12.5523 9 12 9C11.4477 9 11 9.44772 11 10C11 10.5523 11.4477 11 12 11Z" fill="url(#grad1)" stroke="url(#grad1)" stroke-width="1.5" stroke-linecap="round" stroke-linejoin="round"></path>
</svg>